<svg width="26" height="30" viewBox="0 0 26 30" fill="none" xmlns="http://www.w3.org/2000/svg">
<path fill-rule="evenodd" clip-rule="evenodd" d="M5.60782 0.0729386C5.2604 0.194431 4.9571 0.403483 4.77642 0.645941C4.49775 1.01991 4.438 1.33041 4.438 2.40451V3.39151L3.10994 3.3921C1.84713 3.39263 1.76639 3.39942 1.4659 3.53065C1.29216 3.60648 1.04761 3.78078 0.922493 3.91786C0.541825 4.33485 0.500702 4.53529 0.500702 5.97275C0.500702 7.16986 0.508264 7.25273 0.630258 7.39819C0.809374 7.61176 1.12948 7.61176 1.3086 7.39819C1.43028 7.25314 1.43815 7.16933 1.43815 6.01799C1.43815 4.2228 1.38947 4.27062 3.21619 4.27062H4.438V4.69951C4.438 5.51585 4.76655 6.08059 5.4032 6.35856C6.00417 6.621 6.8095 6.509 7.27179 6.09864C7.60546 5.80249 7.76571 5.41199 7.79939 4.81274L7.82989 4.27062H9.57124H11.3126V4.69951C11.3126 5.2578 11.4421 5.65117 11.7296 5.96613C12.5177 6.82953 14.0582 6.61356 14.538 5.57246C14.5934 5.45237 14.6532 5.11187 14.6714 4.81274L14.7045 4.27062H16.4374H18.1702L18.2034 4.81274C18.2216 5.11187 18.2814 5.45237 18.3367 5.57246C18.8166 6.61356 20.3571 6.82953 21.1451 5.96613C21.4326 5.65117 21.5621 5.2578 21.5621 4.69951V4.27062H22.7839C23.7538 4.27062 24.0435 4.28896 24.1891 4.35953C24.588 4.55299 24.562 3.87555 24.562 14.0742V23.3561L24.7066 23.4836C24.8988 23.6528 25.1894 23.6492 25.3636 23.4754L25.4994 23.3397V14.0207C25.4994 3.66796 25.5305 4.41403 25.0776 3.91786C24.9525 3.78078 24.708 3.60648 24.5342 3.53065C24.2339 3.39948 24.1528 3.39263 22.8951 3.3921L21.5719 3.39151L21.5514 2.29263C21.5285 1.06744 21.4715 0.854055 21.065 0.472874C20.7099 0.139809 20.4034 0.0242946 19.8747 0.0242946C19.3461 0.0242946 19.0396 0.139809 18.6844 0.472874C18.2779 0.854055 18.2209 1.06744 18.198 2.29263L18.1775 3.39151H16.4374H14.6972L14.6767 2.29263C14.6539 1.06744 14.5969 0.854055 14.1904 0.472874C13.8352 0.139809 13.5287 0.0242946 13.0001 0.0242946C12.4714 0.0242946 12.1649 0.139809 11.8097 0.472874C11.4033 0.854055 11.3463 1.06744 11.3234 2.29263L11.3029 3.39151H9.56274H7.82258L7.80208 2.29263C7.7792 1.06744 7.72221 0.854055 7.31573 0.472874C6.87956 0.0638545 6.13335 -0.110912 5.60782 0.0729386ZM6.43602 0.946362C6.52089 0.986683 6.65451 1.10888 6.73288 1.21789C6.87356 1.4137 6.87538 1.43913 6.87538 3.22624C6.87538 5.18507 6.85481 5.32672 6.54239 5.51872C6.31372 5.6592 5.8708 5.64883 5.66663 5.49821C5.39089 5.29484 5.36627 5.08485 5.3872 3.11776L5.4067 1.29091L5.56294 1.13338C5.82143 0.872692 6.13791 0.804884 6.43602 0.946362ZM13.3107 0.946362C13.3955 0.986683 13.5292 1.10888 13.6075 1.21789C13.7482 1.4137 13.75 1.43913 13.75 3.22624C13.75 5.18507 13.7295 5.32672 13.417 5.51872C13.2109 5.64537 12.7597 5.64765 12.5699 5.523C12.2724 5.3276 12.2501 5.16784 12.2501 3.22624C12.2501 1.43913 12.2519 1.4137 12.3926 1.21789C12.6264 0.892619 12.9781 0.788591 13.3107 0.946362ZM20.1853 0.946362C20.2702 0.986683 20.4038 1.10888 20.4822 1.21789C20.6229 1.4137 20.6247 1.43913 20.6247 3.22624C20.6247 5.16784 20.6024 5.3276 20.3049 5.523C20.1151 5.64765 19.6639 5.64537 19.4577 5.51872C19.1453 5.32672 19.1248 5.18507 19.1248 3.22624C19.1248 1.43913 19.1266 1.4137 19.2672 1.21789C19.501 0.892619 19.8528 0.788591 20.1853 0.946362ZM0.770375 8.78249C0.695317 8.81156 0.603884 8.88787 0.567261 8.95205C0.520951 9.03327 0.500702 12.0495 0.500702 18.8788C0.500702 29.9536 0.457454 29.0265 0.997676 29.5331C1.53896 30.0407 0.469516 29.9992 13.0001 29.9992C25.5306 29.9992 24.4612 30.0407 25.0024 29.5331C25.478 29.0871 25.4994 28.974 25.4994 26.908C25.4994 25.8584 25.4743 25.083 25.4382 25.0199C25.2937 24.7666 24.7093 24.7843 24.6026 25.0452C24.5802 25.0997 24.562 25.9215 24.562 26.8714C24.562 28.3004 24.5456 28.6281 24.4672 28.7704C24.2603 29.1455 25.0946 29.1201 13.0001 29.1201C3.28493 29.1201 1.97294 29.1096 1.81107 29.0312C1.41159 28.8374 1.43815 29.5656 1.43815 18.8146C1.43815 9.58196 1.43197 9.02396 1.32878 8.90955C1.19785 8.76444 0.958053 8.70988 0.770375 8.78249ZM8.34243 8.83952C8.2728 8.86566 7.64296 9.53683 6.94275 10.331C6.2426 11.125 5.65475 11.7607 5.6365 11.7436C5.61825 11.7265 5.46064 11.5084 5.28627 11.2589C4.99503 10.8422 4.95041 10.8039 4.73842 10.7873C4.45856 10.7655 4.25051 10.9299 4.25051 11.1727C4.25051 11.2728 4.44537 11.6341 4.75855 12.1148C5.31058 12.9621 5.45095 13.077 5.75925 12.9338C5.9003 12.8682 6.84913 11.8333 8.54342 9.89691C9.00945 9.36429 9.06508 9.20904 8.86421 9.00151C8.69516 8.82674 8.52048 8.77253 8.34243 8.83952ZM10.4998 10.4791C9.1877 10.8534 8.99933 12.4661 10.202 13.0281L10.5248 13.1789H15.7393C19.666 13.1789 21.0175 13.1612 21.2111 13.1073C21.5494 13.0131 22.0102 12.5809 22.1107 12.2637C22.2888 11.7012 22.0949 11.0567 21.6522 10.7402C21.205 10.4202 21.2757 10.424 15.7556 10.4294C12.9511 10.4322 10.5859 10.4546 10.4998 10.4791ZM20.9569 11.3716C21.287 11.5366 21.3541 11.9141 21.0962 12.1559L20.9428 12.2998H15.7895H10.6363L10.4689 12.1133C10.3391 11.9686 10.31 11.8878 10.3388 11.7526C10.3828 11.5465 10.4798 11.4256 10.6542 11.3593C10.8652 11.279 20.7955 11.2911 20.9569 11.3716ZM8.34243 14.6416C8.2728 14.6678 7.64296 15.3389 6.94275 16.1331C6.2426 16.9271 5.65475 17.5628 5.6365 17.5457C5.61825 17.5286 5.46064 17.3105 5.28627 17.0611C4.99503 16.6444 4.95041 16.606 4.73842 16.5894C4.45856 16.5676 4.25051 16.732 4.25051 16.9748C4.25051 17.0749 4.44537 17.4362 4.75855 17.9169C5.31096 18.7648 5.45039 18.8788 5.76081 18.7359C5.8968 18.6733 7.04755 17.4142 8.69835 15.5218C9.00927 15.1654 9.04876 14.9943 8.86421 14.8036C8.69516 14.6289 8.52048 14.5746 8.34243 14.6416ZM10.6564 16.2656C10.116 16.383 9.76635 16.6131 9.56655 16.9828C9.19232 17.6755 9.49099 18.5368 10.2165 18.8565C10.4974 18.9804 10.5247 18.981 15.7961 18.9797C20.8232 18.9785 21.1061 18.9729 21.3434 18.8697C21.8655 18.6425 22.1882 18.1639 22.1857 17.6203C22.1833 17.0897 21.8945 16.6565 21.3669 16.3926L21.0934 16.2558L15.9374 16.2471C13.1016 16.2424 10.7252 16.2506 10.6564 16.2656ZM21.0988 17.2994C21.2959 17.5142 21.2949 17.7718 21.0962 17.958L20.9428 18.1019H15.784C10.7307 18.1019 10.6227 18.0996 10.5018 17.9862C10.338 17.8326 10.2911 17.6353 10.3713 17.4377C10.5079 17.1007 10.3823 17.1079 15.896 17.122L20.948 17.1349L21.0988 17.2994ZM8.32468 20.4862C8.27968 20.5031 7.67783 21.1537 6.98724 21.9321C6.29666 22.7104 5.71206 23.3683 5.68806 23.394C5.66413 23.4197 5.50782 23.2302 5.34077 22.9729C4.95347 22.3766 4.73542 22.2655 4.41519 22.5017C4.14383 22.7019 4.19276 22.896 4.71636 23.6964C5.26715 24.5383 5.3527 24.6221 5.63519 24.5968C5.8248 24.5798 5.98486 24.4207 7.36348 22.8784C8.19906 21.9436 8.9099 21.116 8.94308 21.0392C9.09001 20.6994 8.69578 20.3469 8.32468 20.4862ZM10.219 22.2062C9.68048 22.4524 9.32081 23.0839 9.40806 23.6297C9.4983 24.1941 9.97553 24.6628 10.5798 24.7804C10.8105 24.8253 12.4685 24.8401 16.0027 24.8287L21.0934 24.8124L21.3669 24.6756C21.8945 24.4117 22.1833 23.9785 22.1857 23.4479C22.1882 22.9043 21.8655 22.4257 21.3434 22.1986C21.106 22.0952 20.8258 22.0898 15.7812 22.0908C10.6421 22.0918 10.4608 22.0956 10.219 22.2062ZM21.0962 23.1102C21.2949 23.2964 21.2959 23.554 21.0988 23.7689L20.948 23.9333L15.9122 23.949C11.5978 23.9625 10.8449 23.9523 10.6566 23.8786C10.296 23.7373 10.22 23.3463 10.5018 23.0821C10.6227 22.9687 10.7307 22.9663 15.784 22.9663H20.9428L21.0962 23.1102Z" fill="white"/>
</svg>
